<svg width="23" height="24" viewBox="0 0 23 24" fill="none" xmlns="http://www.w3.org/2000/svg">
<g filter="url(#filter0_d_2101_16351)">
<path fill-rule="evenodd" clip-rule="evenodd" d="M6.02664 16.7066C5.65331 16.2266 5.18664 15.2533 4.37331 14.0399C3.90664 13.3733 2.75997 12.1066 2.41331 11.4533C2.1634 11.0563 2.09089 10.5728 2.21331 10.1199C2.42259 9.25889 3.23939 8.6877 4.11997 8.78661C4.80104 8.92343 5.42694 9.25724 5.91997 9.74661C6.26421 10.0708 6.58086 10.4232 6.86664 10.7999C7.07997 11.0666 7.13331 11.1733 7.37331 11.4799C7.61331 11.7866 7.7733 12.0933 7.6533 11.6399C7.55997 10.9733 7.39997 9.85328 7.17331 8.85328C6.99997 8.09328 6.95997 7.97328 6.79997 7.39995C6.63997 6.82661 6.54664 6.34661 6.37331 5.69328C6.21486 5.05137 6.09024 4.40159 5.99997 3.74661C5.83191 2.90888 5.95418 2.0389 6.34664 1.27994C6.8125 0.84177 7.49588 0.726121 8.07997 0.986611C8.66743 1.42039 9.10544 2.02615 9.3333 2.71994C9.68273 3.5738 9.91592 4.4707 10.0266 5.38661C10.24 6.71994 10.6533 8.66661 10.6666 9.06661C10.6666 8.57328 10.5733 7.53328 10.6666 7.06661C10.7591 6.58011 11.0972 6.17636 11.56 5.99994C11.9571 5.87811 12.3771 5.85072 12.7866 5.91994C13.2 6.00637 13.5662 6.24414 13.8133 6.58661C14.1222 7.36447 14.2936 8.19008 14.32 9.02661C14.3557 8.29406 14.4811 7.56865 14.6933 6.86661C14.9161 6.55268 15.2415 6.32633 15.6133 6.22661C16.0541 6.14602 16.5058 6.14602 16.9466 6.22661C17.3081 6.34745 17.6243 6.5753 17.8533 6.87994C18.1357 7.58707 18.3066 8.33373 18.36 9.09328C18.36 9.27995 18.4533 8.57328 18.7466 8.10661C18.8991 7.65408 19.2814 7.31724 19.7495 7.22298C20.2176 7.12872 20.7005 7.29137 21.0161 7.64965C21.3318 8.00793 21.4324 8.50741 21.28 8.95994C21.28 9.82661 21.28 9.78661 21.28 10.3733C21.28 10.9599 21.28 11.4799 21.28 11.9733C21.2314 12.7535 21.1244 13.529 20.96 14.2933C20.7279 14.9694 20.405 15.6109 20 16.1999C19.3526 16.9199 18.8176 17.7335 18.4133 18.6133C18.313 19.0504 18.2682 19.4983 18.28 19.9466C18.2786 20.3608 18.3324 20.7733 18.44 21.1733C17.8948 21.2309 17.3451 21.2309 16.8 21.1733C16.28 21.0933 15.64 20.0533 15.4666 19.7333C15.3809 19.5615 15.2053 19.4529 15.0133 19.4529C14.8213 19.4529 14.6457 19.5615 14.56 19.7333C14.2666 20.2399 13.6133 21.1599 13.16 21.2133C12.2666 21.3199 10.4266 21.2133 8.9733 21.2133C8.9733 21.2133 9.2133 19.8799 8.66664 19.3999C8.11997 18.9199 7.55997 18.3599 7.14664 17.9866L6.02664 16.7066Z" stroke="black" stroke-width="0.75" stroke-linecap="round" stroke-linejoin="round"/>
<path d="M17.3333 17.4344V12.8321C17.3333 12.5566 17.1095 12.3333 16.8333 12.3333C16.5572 12.3333 16.3333 12.5566 16.3333 12.8321V17.4344C16.3333 17.7099 16.5572 17.9333 16.8333 17.9333C17.1095 17.9333 17.3333 17.7099 17.3333 17.4344Z" fill="black"/>
<path d="M14.6933 17.4328L14.6666 12.828C14.665 12.5532 14.4399 12.3317 14.1637 12.3333C13.8876 12.3348 13.665 12.5589 13.6666 12.8337L13.6933 17.4385C13.6949 17.7133 13.92 17.9348 14.1962 17.9332C14.4723 17.9317 14.6949 17.7076 14.6933 17.4328Z" fill="black"/>
<path d="M11 12.8386L11.0267 17.4338C11.0283 17.7112 11.2534 17.9349 11.5296 17.9332C11.8057 17.9316 12.0283 17.7054 12.0267 17.4279L12 12.8327C11.9984 12.5553 11.7732 12.3316 11.4971 12.3333C11.2209 12.3349 10.9984 12.5611 11 12.8386Z" fill="black"/>
</g>
<defs>
<filter id="filter0_d_2101_16351" x="0.98009" y="0.473999" width="21.5448" height="22.9617" filterUnits="userSpaceOnUse" color-interpolation-filters="sRGB">
<feFlood flood-opacity="0" result="BackgroundImageFix"/>
<feColorMatrix in="SourceAlpha" type="matrix" values="0 0 0 0 0 0 0 0 0 0 0 0 0 0 0 0 0 0 127 0" result="hardAlpha"/>
<feOffset dy="1"/>
<feGaussianBlur stdDeviation="0.4"/>
<feColorMatrix type="matrix" values="0 0 0 0 0 0 0 0 0 0 0 0 0 0 0 0 0 0 0.5 0"/>
<feBlend mode="normal" in2="BackgroundImageFix" result="effect1_dropShadow_2101_16351"/>
<feBlend mode="normal" in="SourceGraphic" in2="effect1_dropShadow_2101_16351" result="shape"/>
</filter>
</defs>
</svg>
