<?xml version="1.0" standalone="no"?>
<!DOCTYPE svg PUBLIC "-//W3C//DTD SVG 1.1//EN" "http://www.w3.org/Graphics/SVG/1.1/DTD/svg11.dtd" >
<svg xmlns="http://www.w3.org/2000/svg">
<defs>
  <font id="icons" horiz-adv-x="1142.857142857143">
    <font-face font-family="icons"
      units-per-em="1000" ascent="1000"
      descent="0" />
    <missing-glyph horiz-adv-x="0" />
    <glyph glyph-name="add"
      unicode="&#xEA01;"
      horiz-adv-x="1000" d="M750.0028125 458.333125H541.6684375000001V250C541.6684375000001 227.0812500000001 522.9184375 208.33125 500.0015625 208.33125C477.0846875 208.33125 458.3346875 227.0812500000001 458.3346875 250V458.333125H250.0015625C227.0846875 458.333125 208.3346875 477.0831250000001 208.3346875 500C208.3346875 522.916875 227.0846875 541.666875 250.0015625 541.666875H458.3346875V750C458.3346875 772.916875 477.0846875 791.666875 500.0015625 791.666875C522.9184375 791.666875 541.6684375000001 772.916875 541.6684375000001 750V541.666875H750.0028125C772.9153125 541.666875 791.6653125 522.916875 791.6653125 500C791.6653125 477.0831250000001 772.9153125 458.333125 750.0028125 458.333125z" />
    <glyph glyph-name="arrow_circle_right"
      unicode="&#xEA02;"
      horiz-adv-x="1000" d="M916.6675 499.9900000000001C916.6675 729.99 729.99875 916.65625 499.9993749999999 916.65625C269.999375 916.65625 83.3325 729.99 83.3325 499.9900000000001C83.3325 269.9875000000001 269.999375 83.3249999999999 499.9993749999999 83.3249999999999C729.99875 83.3249999999999 916.6675 269.9875000000001 916.6675 499.9900000000001zM499.9993749999999 383.74V458.323125H374.999375C352.0824999999999 458.323125 333.3325 477.073125 333.3325 499.9900000000001C333.3325 522.90625 352.0824999999999 541.65625 374.999375 541.65625H499.9993749999999V616.24C499.9993749999999 634.99 522.499375 644.15625 535.41625 630.823125L651.6675 514.573125C659.99875 506.24 659.99875 493.3231249999999 651.6675 484.99L535.41625 368.7375000000001C522.499375 355.825 499.9993749999999 364.9875000000001 499.9993749999999 383.74z" />
    <glyph glyph-name="arrow_right_alt"
      unicode="&#xEA03;"
      horiz-adv-x="1000" d="M671.6155468750001 541.503125H212.864609375C189.947734375 541.503125 171.197734375 522.753125 171.197734375 499.8375C171.197734375 476.921875 189.947734375 458.171875 212.864609375 458.171875H671.6155468750001V383.5875C671.6155468750001 364.8375000000001 694.1155468750001 355.671875 707.0311718749999 369.003125L822.8655468750001 485.253125C830.7811718749999 493.5875 830.7811718749999 506.503125 822.8655468750001 514.8375L707.0311718749999 631.0875000000001C694.1155468750001 644.421875 671.6155468750001 634.8375 671.6155468750001 616.503125V541.503125z" />
    <glyph glyph-name="campaign"
      unicode="&#xEA04;"
      horiz-adv-x="1000" d="M742.4225000000001 499.7863636363637C742.4225000000001 477.5636363636363 760.6043181818183 459.3818181818182 782.8270454545456 459.3818181818182H863.6361363636364C885.8588636363637 459.3818181818182 904.0406818181818 477.5636363636363 904.0406818181818 499.7863636363637C904.0406818181818 522.0090909090909 885.8588636363637 540.1909090909091 863.6361363636364 540.1909090909091H782.8270454545456C760.6043181818183 540.1909090909091 742.4225000000001 522.0090909090909 742.4225000000001 499.7863636363637zM685.4543181818182 305.0363636363637C672.1225000000001 287.2590909090909 675.7588636363637 262.6136363636364 693.5361363636364 249.6863636363636C714.9497727272727 233.9272727272728 737.5770454545456 216.959090909091 758.9906818181819 200.7954545454546C776.7679545454545 187.4636363636363 801.8179545454547 191.1 814.7452272727272 208.8772727272729C814.7452272727272 209.2818181818182 815.1497727272728 209.2818181818182 815.1497727272728 209.6863636363636C828.4861363636364 227.4636363636364 824.8497727272727 252.5136363636364 807.0725000000001 265.4409090909092C785.6543181818183 281.6045454545455 763.0315909090909 298.5727272727273 742.0179545454546 314.3318181818182C724.2406818181818 327.6636363636365 699.1906818181818 323.6227272727273 685.8588636363637 305.8454545454546C685.8588636363637 305.4409090909092 685.4543181818182 305.0363636363637 685.4543181818182 305.0363636363637zM815.5543181818182 790.2913636363636C815.5543181818182 790.695 815.1497727272728 790.695 815.1497727272728 791.0990909090909C801.8179545454547 808.8768181818182 776.7679545454545 812.5131818181818 759.3952272727274 799.18C737.981590909091 783.0186363636363 714.9497727272727 766.0486363636363 693.9406818181818 749.8872727272727C676.1634090909091 736.5536363636363 672.9270454545455 711.5031818181818 686.2634090909091 694.1295454545455C686.2634090909091 693.7254545454546 686.6679545454546 693.7254545454546 686.6679545454546 693.3213636363637C699.9997727272728 675.5436363636363 724.6452272727273 671.9072727272727 742.4225000000001 685.2404545454546C763.8361363636365 700.9981818181818 786.4634090909091 718.3718181818182 807.8770454545454 734.5336363636363C825.2543181818182 747.4627272727273 828.4861363636364 772.5131818181818 815.5543181818182 790.2913636363636zM338.3838636363637 620.9981818181818H176.7675000000001C132.3229545454546 620.9981818181818 95.9593181818182 584.6345454545454 95.9593181818182 540.1909090909091V459.3818181818182C95.9593181818182 414.9363636363637 132.3229545454546 378.5727272727273 176.7675000000001 378.5727272727273H217.1715909090909V257.3636363636364C217.1715909090909 235.1409090909092 235.3534090909092 216.959090909091 257.5756818181819 216.959090909091C279.7979545454546 216.959090909091 297.9797727272728 235.1409090909092 297.9797727272728 257.3636363636364V378.5727272727273H338.3838636363637L540.4043181818182 257.3636363636364V742.2104545454546L338.3838636363637 620.9981818181818zM641.4134090909091 499.7863636363637C641.4134090909091 553.5236363636363 617.9815909090909 602.0081818181818 580.8088636363636 635.1395454545454V364.8363636363637C617.9815909090909 397.5636363636363 641.4134090909091 446.0500000000001 641.4134090909091 499.7863636363637z" />
    <glyph glyph-name="chevron_left"
      unicode="&#xEA05;"
      horiz-adv-x="1000" d="M625 720.6234375C608.75 736.8734375 582.5 736.8734375 566.25 720.6234375L375 529.375C358.75 513.125 358.75 486.875 375 470.625L566.25 279.375C582.5 263.125 608.75 263.125 625 279.375C641.25 295.625 641.25 321.875 625 338.125L463.334375 500.20625L625 661.875C641.25 678.125 640.8343749999999 704.79 625 720.6234375z" />
    <glyph glyph-name="chevron_right"
      unicode="&#xEA06;"
      horiz-adv-x="1000" d="M375 720.3878125C358.75 704.1378125 358.75 677.8875 375 661.6375L536.6656250000001 499.971875L375 338.303125C358.75 322.053125 358.75 295.8031249999999 375 279.5531249999999C391.25 263.303125 417.5 263.303125 433.75 279.5531249999999L625 470.803125C641.25 487.053125 641.25 513.303125 625 529.553125L433.75 720.8043749999999C417.9156250000001 736.6378125 391.25 736.6378125 375 720.3878125z" />
    <glyph glyph-name="duo"
      unicode="&#xEA07;"
      horiz-adv-x="1000" d="M833.3303125 916.65625H499.9990625C265.8321875 916.65625 83.3321875 722.49 83.3321875 488.3231249999999C83.3321875 270.825 270.4153125000001 83.3249999999999 488.3321875 83.3249999999999C724.5803125 83.3249999999999 916.6678125 265.825 916.6678125 499.9900000000001V833.323125C916.6678125 879.15625 879.1678125000001 916.65625 833.3303125 916.65625zM708.3303125 374.9875000000001L583.3321874999999 458.323125V374.9875000000001H291.6653125V624.99H583.3321874999999V541.65625L708.3303125 624.99V374.9875000000001z" />
    <glyph glyph-name="emoji_emotions"
      unicode="&#xEA08;"
      horiz-adv-x="1000" d="M499.5846875 916.664375C269.5846875 916.664375 83.3346875 729.9975 83.3346875 499.9975C83.3346875 270 269.5846875 83.33125 499.5846875 83.33125C730.0028125 83.33125 916.6653125 270 916.6653125 499.9975C916.6653125 729.9975 730.0028125 916.664375 499.5846875 916.664375zM354.1684375 666.664375C388.7515625 666.664375 416.6684375 638.7475 416.6684375 604.164375C416.6684375 569.580625 388.7515625 541.664375 354.1684375 541.664375C319.5846875 541.664375 291.6684375 569.580625 291.6684375 604.164375C291.6684375 638.7475 319.5846875 666.664375 354.1684375 666.664375zM696.2528125 386.664375C658.3340625000001 305.4125 585.0015625 250 500.0015625 250C415.0015625 250 341.6684375 305.4125 303.7515625 386.664375C297.0846875 400.414375 307.0846875 416.664375 322.5015625 416.664375H677.5028125C692.9153125 416.664375 702.9153125 400.414375 696.2528125 386.664375zM645.8340625 541.664375C611.2515625 541.664375 583.3346875000001 569.580625 583.3346875000001 604.164375C583.3346875000001 638.7475 611.2515625 666.664375 645.8340625 666.664375C680.4153125 666.664375 708.3340625 638.7475 708.3340625 604.164375C708.3340625 569.580625 680.4153125 541.664375 645.8340625 541.664375z" />
    <glyph glyph-name="emoji_objects"
      unicode="&#xEA09;"
      horiz-adv-x="1000" d="M500.0691730945199 895.84375C480.90229809452 895.84375 461.3191730945199 894.176875 441.7354230945199 890.01C326.7354230945199 867.926875 235.06917309452 775.01 213.40229809452 660.01C193.4022980945199 551.26 233.4022980945199 451.26 305.9022980945199 386.676875C323.8191730945199 370.84375 333.4022980945199 348.7625 333.4022980945199 325.425V229.1750000000001C333.4022980945199 183.34375 370.9022980945199 145.84375 416.7354230945199 145.84375H428.4022980945199C442.9854230945199 120.84375 469.2354230945199 104.1750000000001 500.0691730945199 104.1750000000001C530.9022980945199 104.1750000000001 557.5691730945199 120.84375 571.7354230945199 145.84375H583.4022980945199C629.23292309452 145.84375 666.73292309452 183.34375 666.73292309452 229.1750000000001V325.425C666.73292309452 348.34375 675.9016730945199 370.84375 693.4016730945199 386.26C753.8204230945199 439.59375 791.73292309452 517.51 791.73292309452 604.176875C791.73292309452 765.426875 661.3204230945198 895.84375 500.0691730945199 895.84375zM520.9022980945199 437.51H479.2354230945199V545.426875L402.9854230945199 621.26L432.5691730945199 650.84375L500.0691730945199 583.34375L567.5691730945199 650.84375L597.1522980945199 621.26L520.9022980945199 545.01V437.51zM562.5691730945199 229.1750000000001C562.1522980945199 229.1750000000001 561.7354230945199 229.59375 561.3191730945199 229.59375V229.1750000000001H438.81917309452V229.59375C438.4022980945199 229.59375 437.9854230945199 229.1750000000001 437.5691730945199 229.1750000000001C425.9022980945199 229.1750000000001 416.7354230945199 238.34375 416.7354230945199 250.0125C416.7354230945199 261.675 425.9022980945199 270.84375 437.5691730945199 270.84375C437.9854230945199 270.84375 438.4022980945199 270.4250000000001 438.81917309452 270.4250000000001V270.84375H561.3191730945199V270.4250000000001C561.7354230945199 270.4250000000001 562.1522980945199 270.84375 562.5691730945199 270.84375C574.2354230945199 270.84375 583.4022980945199 261.675 583.4022980945199 250.0125C583.4022980945199 238.34375 574.2354230945199 229.1750000000001 562.5691730945199 229.1750000000001zM562.5691730945199 312.5125H437.5691730945199C425.9022980945199 312.5125 416.7354230945199 321.6750000000001 416.7354230945199 333.34375C416.7354230945199 345.0125000000001 425.9022980945199 354.1750000000001 437.5691730945199 354.1750000000001H562.5691730945199C574.2354230945199 354.1750000000001 583.4022980945199 345.0125000000001 583.4022980945199 333.34375C583.4022980945199 321.6750000000001 574.2354230945199 312.5125 562.5691730945199 312.5125z" />
    <glyph glyph-name="expand_more"
      unicode="&#xEA0A;"
      horiz-adv-x="1000" d="M661.4565625 625L499.7915625000001 463.333125L338.1246875 625C321.8746875 641.25 295.6246875 641.25 279.3746875 625C263.1246875000001 608.75 263.1246875000001 582.5 279.3746875 566.25L470.6246875 375C486.8746875000001 358.75 513.1246874999999 358.75 529.3746874999999 375L720.6253125000001 566.25C736.8753125000001 582.5 736.8753125000001 608.75 720.6253125000001 625C704.3753125000001 640.833125 677.7065625 641.25 661.4565625 625z" />
    <glyph glyph-name="explore"
      unicode="&#xEA0B;"
      horiz-adv-x="1000" d="M500.0015625 545.838125C474.5846875 545.838125 454.1684375 525.421875 454.1684375 500.005C454.1684375 474.588125 474.5846875 454.171875 500.0015625 454.171875C525.4184375000001 454.171875 545.8346875 474.588125 545.8346875 500.005C545.8346875 525.421875 525.4184375000001 545.838125 500.0015625 545.838125zM500.0015625 916.671875C270.0015625 916.671875 83.3346875 730.005 83.3346875 500.005C83.3346875 270.00625 270.0015625 83.3375 500.0015625 83.3375C730.0028125 83.3375 916.6653125 270.00625 916.6653125 500.005C916.6653125 730.005 730.0028125 916.671875 500.0015625 916.671875zM591.2515625 408.755L250.0015625 250.00625L408.7515625 591.255L750.0028125 750.005L591.2515625 408.755z" />
    <glyph glyph-name="favorite"
      unicode="&#xEA0C;"
      horiz-adv-x="1000" d="M556.2377016593608 153.86875C524.5708266593607 125.11875 475.8208266593607 125.11875 444.1539516593607 154.2875L439.5708266593607 158.4499999999999C220.8208266593607 356.36875 77.9039516593607 485.95125 83.3208266593607 647.618125C85.8208266593607 718.45125 122.0708266593607 786.368125 180.8208266593607 826.368125C290.8208266593607 901.368125 426.6539516593607 866.368125 499.9877016593607 780.534375C573.3208266593608 866.368125 709.1564516593608 901.784375 819.1564516593608 826.368125C877.9064516593608 786.368125 914.1564516593608 718.45125 916.6564516593608 647.618125C922.4877016593608 485.95125 779.1564516593608 356.36875 560.4039516593607 157.61875L556.2377016593608 153.86875z" />
    <glyph glyph-name="fullscreen"
      unicode="&#xEA0D;"
      horiz-adv-x="1000" d="M250.0000000000001 416.6666666666668C227.0833333333334 416.6666666666668 208.3333333333334 397.9166666666668 208.3333333333334 375V250C208.3333333333334 227.0833333333334 227.0833333333334 208.3333333333334 250.0000000000001 208.3333333333334H375.0000000000001C397.9166666666668 208.3333333333334 416.6666666666667 227.0833333333334 416.6666666666667 250C416.6666666666667 272.9166666666668 397.9166666666668 291.6666666666668 375.0000000000001 291.6666666666668H291.6666666666667V375C291.6666666666667 397.9166666666668 272.9166666666667 416.6666666666668 250.0000000000001 416.6666666666668zM250.0000000000001 583.3333333333334C272.9166666666667 583.3333333333334 291.6666666666667 602.0833333333333 291.6666666666667 625V708.3333333333334H375.0000000000001C397.9166666666668 708.3333333333334 416.6666666666667 727.0833333333334 416.6666666666667 750C416.6666666666667 772.9166666666667 397.9166666666668 791.6666666666667 375.0000000000001 791.6666666666667H250.0000000000001C227.0833333333334 791.6666666666667 208.3333333333334 772.9166666666667 208.3333333333334 750V625C208.3333333333334 602.0833333333333 227.0833333333334 583.3333333333334 250.0000000000001 583.3333333333334zM708.3333333333333 291.6666666666668H625C602.0833333333333 291.6666666666668 583.3333333333333 272.9166666666668 583.3333333333333 250C583.3333333333333 227.0833333333334 602.0833333333333 208.3333333333334 625 208.3333333333334H750C772.9166666666667 208.3333333333334 791.6666666666667 227.0833333333334 791.6666666666667 250V375C791.6666666666667 397.9166666666668 772.9166666666667 416.6666666666668 750 416.6666666666668C727.0833333333333 416.6666666666668 708.3333333333333 397.9166666666668 708.3333333333333 375V291.6666666666668zM583.3333333333333 750C583.3333333333333 727.0833333333334 602.0833333333333 708.3333333333334 625 708.3333333333334H708.3333333333333V625C708.3333333333333 602.0833333333333 727.0833333333333 583.3333333333334 750 583.3333333333334C772.9166666666667 583.3333333333334 791.6666666666667 602.0833333333333 791.6666666666667 625V750C791.6666666666667 772.9166666666667 772.9166666666667 791.6666666666667 750 791.6666666666667H625C602.0833333333333 791.6666666666667 583.3333333333333 772.9166666666667 583.3333333333333 750z" />
    <glyph glyph-name="groups"
      unicode="&#xEA0E;"
      horiz-adv-x="1000" d="M500 468.75C567.916875 468.75 627.9187499999999 452.5 676.66875 431.25C721.6687499999999 411.25 750 366.25 750 317.5V291.6687500000001C750 268.75 731.25 250 708.33125 250H291.666875C268.75 250 250 268.75 250 291.6687500000001V317.08125C250 366.25 278.333125 411.25 323.333125 430.833125C372.083125 452.5 432.083125 468.75 500 468.75zM166.666875 458.333125C212.5 458.333125 250 495.833125 250 541.666875C250 587.5 212.5 625 166.666875 625C120.833125 625 83.333125 587.5 83.333125 541.666875C83.333125 495.833125 120.833125 458.333125 166.666875 458.333125zM213.75 412.5C198.333125 415 182.916875 416.666875 166.666875 416.666875C125.416875 416.666875 86.25 407.916875 50.8333125 392.5C20 379.166875 0 349.1687500000001 0 315.41875V291.6687500000001C0 268.75 18.75 250 41.6666875 250H187.5V317.08125C187.5 351.66875 197.083125 384.166875 213.75 412.5zM833.33125 458.333125C879.16875 458.333125 916.66875 495.833125 916.66875 541.666875C916.66875 587.5 879.16875 625 833.33125 625C787.5 625 750 587.5 750 541.666875C750 495.833125 787.5 458.333125 833.33125 458.333125zM1000 315.41875C1000 349.1687500000001 980 379.166875 949.16875 392.5C913.75 407.916875 874.58125 416.666875 833.33125 416.666875C817.08125 416.666875 801.66875 415 786.25 412.5C802.91875 384.166875 812.5 351.66875 812.5 317.08125V250H958.33125C981.25 250 1000 268.75 1000 291.6687500000001V315.41875zM500 750C569.166875 750 625 694.166875 625 625C625 555.833125 569.166875 500 500 500C430.833125 500 375 555.833125 375 625C375 694.166875 430.833125 750 500 750z" />
    <glyph glyph-name="instagram"
      unicode="&#xEA0F;"
      horiz-adv-x="1000" d="M500.0002222222222 877.7666666666667C622.2218888888888 877.7666666666667 638.8885555555555 877.7666666666667 688.8885555555555 877.7666666666667C733.333 877.7666666666667 755.5552222222221 866.6555555555556 772.2218888888889 861.1C794.444111111111 849.9888888888888 811.1107777777777 844.4333333333334 827.7774444444444 827.7666666666667C844.444111111111 811.1 855.5552222222221 794.4333333333333 861.1107777777777 772.2111111111111C866.6663333333332 755.5444444444445 872.2218888888888 733.3222222222222 877.7774444444444 688.8777777777777C877.7774444444444 638.8777777777777 877.7774444444444 627.7666666666667 877.7774444444444 499.9888888888889C877.7774444444444 372.2111111111111 877.7774444444444 361.1 877.7774444444444 311.1C877.7774444444444 266.6555555555555 866.6663333333332 244.4333333333334 861.1107777777777 227.7666666666667C849.9996666666667 205.5444444444444 844.444111111111 188.8777777777779 827.7774444444444 172.2111111111111C811.1107777777777 155.5444444444444 794.444111111111 144.4333333333333 772.2218888888889 138.8777777777777C755.5552222222221 133.3222222222222 733.333 127.7666666666667 688.8885555555555 122.2111111111111C638.8885555555555 122.2111111111111 627.7774444444444 122.2111111111111 500.0002222222222 122.2111111111111C372.2224444444444 122.2111111111111 361.1113333333334 122.2111111111111 311.1113333333334 122.2111111111111C266.6668888888889 122.2111111111111 244.4446666666667 133.3222222222222 227.778 138.8777777777777C205.5557777777778 149.9888888888888 188.8891111111111 155.5444444444444 172.2224444444445 172.2111111111111C155.5557777777778 188.8777777777779 144.4446666666667 205.5444444444444 138.8891111111111 227.7666666666667C133.3335555555555 244.4333333333334 127.778 266.6555555555555 122.2224444444444 311.1C122.2224444444444 361.1 122.2224444444444 372.2111111111111 122.2224444444444 499.9888888888889C122.2224444444444 627.7666666666667 122.2224444444444 638.8777777777777 122.2224444444444 688.8777777777777C122.2224444444444 733.3222222222222 133.3335555555555 755.5444444444445 138.8891111111111 772.2111111111111C150.0002222222222 794.4333333333333 155.5557777777778 811.1 172.2224444444445 827.7666666666667C188.8891111111111 844.4333333333334 205.5557777777778 855.5444444444445 227.778 861.1C244.4446666666667 866.6555555555556 266.6668888888889 872.2111111111111 311.1113333333334 877.7666666666667C361.1113333333334 877.7666666666667 377.778 877.7666666666667 500.0002222222222 877.7666666666667zM500.0002222222222 961.1002777777778C372.2224444444444 961.1002777777778 361.1113333333334 961.1002777777778 311.1113333333334 961.1002777777778C261.1113333333334 961.1002777777778 227.778 949.9891111111112 200.0002222222222 938.8777777777779C172.2224444444445 927.7666666666667 144.4446666666667 911.1 116.6668888888889 883.3222222222222C88.8891111111111 855.5444444444445 77.778 833.3222222222222 61.1113333333333 799.9888888888888C50.0003888888889 772.2111111111111 44.4447777777778 738.8777777777777 38.8892222222222 688.8777777777777C38.8892222222222 638.8777777777777 38.8892222222222 622.2111111111111 38.8892222222222 499.9888888888889C38.8892222222222 372.2111111111111 38.8892222222222 361.1 38.8892222222222 311.1C38.8892222222222 261.0999999999999 50.0003888888889 227.7666666666667 61.1113333333333 199.9888888888888C72.2224444444444 172.2111111111111 88.8891111111111 144.4333333333333 116.6668888888889 116.6555555555556C144.4446666666667 88.8777777777776 166.6668888888889 77.7666666666665 200.0002222222222 61.0999999999999C227.778 49.9888888888888 261.1113333333334 44.4333333333334 311.1113333333334 38.8777777777777C361.1113333333334 38.8777777777777 377.778 38.8777777777777 500.0002222222222 38.8777777777777C622.2218888888888 38.8777777777777 638.8885555555555 38.8777777777777 688.8885555555555 38.8777777777777C738.8885555555555 38.8777777777777 772.2218888888889 49.9888888888888 799.9996666666666 61.0999999999999C827.7774444444444 72.2111111111111 855.5552222222221 88.8777777777776 883.333 116.6555555555556C911.1107777777776 144.4333333333333 922.2218888888888 166.6555555555556 938.8885555555554 199.9888888888888C949.9996666666668 227.7666666666667 955.5552222222223 261.0999999999999 961.1107777777778 311.1C961.1107777777778 361.1 961.1107777777778 377.7666666666667 961.1107777777778 499.9888888888889C961.1107777777778 622.2111111111111 961.1107777777778 638.8777777777777 961.1107777777778 688.8777777777777C961.1107777777778 738.8777777777777 949.9996666666668 772.2111111111111 938.8885555555554 799.9888888888888C927.7774444444444 827.7666666666667 911.1107777777776 855.5444444444445 883.333 883.3222222222222C855.5552222222221 911.1 833.333 922.2111111111112 799.9996666666666 938.8777777777779C772.2218888888889 949.9891111111112 738.8885555555555 955.5447222222222 688.8885555555555 961.1002777777778C638.8885555555555 961.1002777777778 627.7774444444444 961.1002777777778 500.0002222222222 961.1002777777778zM500.0002222222222 738.8777777777777C366.6668888888889 738.8777777777777 261.1113333333334 633.3222222222222 261.1113333333334 499.9888888888889C261.1113333333334 366.6555555555556 366.6668888888889 261.0999999999999 500.0002222222222 261.0999999999999C633.333 261.0999999999999 738.8885555555555 366.6555555555556 738.8885555555555 499.9888888888889C738.8885555555555 633.3222222222222 633.333 738.8777777777777 500.0002222222222 738.8777777777777zM500.0002222222222 344.4333333333333C416.6668888888889 344.4333333333333 344.4446666666667 411.1 344.4446666666667 499.9888888888889C344.4446666666667 583.3222222222222 411.1113333333334 655.5444444444445 500.0002222222222 655.5444444444445C583.333 655.5444444444445 655.5552222222223 588.8777777777777 655.5552222222223 499.9888888888889C655.5552222222223 416.6555555555556 583.333 344.4333333333333 500.0002222222222 344.4333333333333zM744.444111111111 688.8777777777777C775.1274444444443 688.8777777777777 799.9996666666666 713.7511111111112 799.9996666666666 744.4333333333333C799.9996666666666 775.1161111111111 775.1274444444443 799.9888888888888 744.444111111111 799.9888888888888C713.7607777777777 799.9888888888888 688.8885555555555 775.1161111111111 688.8885555555555 744.4333333333333C688.8885555555555 713.7511111111112 713.7607777777777 688.8777777777777 744.444111111111 688.8777777777777z" />
    <glyph glyph-name="interests"
      unicode="&#xEA10;"
      horiz-adv-x="1000" d="M277.8626134764028 447.90625C185.7794884764027 447.90625 111.1957384764027 373.3250000000001 111.1957384764027 281.2375000000001C111.1957384764027 189.15625 185.7794884764027 114.5749999999999 277.8626134764028 114.5749999999999C369.9457384764028 114.5749999999999 444.5294884764027 189.15625 444.5294884764027 281.2375000000001C444.5294884764027 373.3250000000001 369.9457384764028 447.90625 277.8626134764028 447.90625zM527.0294884764027 406.24V156.2375000000001C527.0294884764027 133.3250000000001 545.7794884764027 114.5749999999999 568.6957384764027 114.5749999999999H818.6988634764026C841.6113634764026 114.5749999999999 860.3613634764027 133.3250000000001 860.3613634764027 156.2375000000001V406.24C860.3613634764027 429.15625 841.6113634764026 447.90625 818.6988634764026 447.90625H568.6957384764027C545.7794884764027 447.90625 527.0294884764027 429.15625 527.0294884764027 406.24zM240.7794884764027 840.823125L103.2794884764027 593.323125C87.8626134764027 565.40625 107.8626134764027 531.24 139.5294884764027 531.24H414.5294884764027C446.1957384764027 531.24 466.1957384764028 565.40625 450.7794884764027 593.323125L313.2794884764027 840.823125C297.4457384764027 869.15625 256.6126134764027 869.15625 240.7794884764027 840.823125zM787.4488634764026 885.40625C743.2801134764027 885.40625 712.0301134764027 862.073125 693.6988634764026 836.65625C675.3613634764026 862.073125 644.1113634764026 885.40625 599.9457384764027 885.40625C534.9457384764028 885.40625 485.3626134764027 832.073125 485.3626134764027 770.823125C485.3626134764027 694.573125 569.9457384764027 638.74 666.6113634764027 554.99C682.0301134764027 541.65625 704.9488634764026 541.65625 720.7801134764027 554.99C817.4488634764027 638.74 902.0301134764026 694.573125 902.0301134764026 770.823125C902.0301134764026 832.073125 852.4488634764027 885.40625 787.4488634764026 885.40625z" />
    <glyph glyph-name="link"
      unicode="&#xEA11;"
      horiz-adv-x="1000" d="M708.3299999999999 708.34375H583.3325C560.415625 708.34375 541.665625 689.59375 541.665625 666.676875C541.665625 643.76 560.415625 625.01 583.3325 625.01H708.3299999999999C777.0799999999999 625.01 833.3299999999999 568.76 833.3299999999999 500.01C833.3299999999999 431.26 777.0799999999999 375.01 708.3299999999999 375.01H583.3325C560.415625 375.01 541.665625 356.2625000000001 541.665625 333.34375C541.665625 310.425 560.415625 291.6750000000001 583.3325 291.6750000000001H708.3299999999999C823.3299999999999 291.6750000000001 916.6675 385.01 916.6675 500.01C916.6675 615.01 823.3299999999999 708.34375 708.3299999999999 708.34375zM333.3325 500.01C333.3325 477.09375 352.0824999999999 458.34375 374.99875 458.34375H624.99875C647.9174999999999 458.34375 666.6675 477.09375 666.6675 500.01C666.6675 522.926875 647.9174999999999 541.676875 624.99875 541.676875H374.99875C352.0824999999999 541.676875 333.3325 522.926875 333.3325 500.01zM416.665625 375.01H291.665625C222.915625 375.01 166.665625 431.26 166.665625 500.01C166.665625 568.76 222.915625 625.01 291.665625 625.01H416.665625C439.5825 625.01 458.3325 643.76 458.3325 666.676875C458.3325 689.59375 439.5825 708.34375 416.665625 708.34375H291.665625C176.665625 708.34375 83.3325 615.01 83.3325 500.01C83.3325 385.01 176.665625 291.6750000000001 291.665625 291.6750000000001H416.665625C439.5825 291.6750000000001 458.3325 310.425 458.3325 333.34375C458.3325 356.2625000000001 439.5825 375.01 416.665625 375.01z" />
    <glyph glyph-name="linkedin"
      unicode="&#xEA12;"
      horiz-adv-x="1000" d="M225.0007142857143 0H12.4997857142857V668.75H225.0007142857143V0zM118.75 762.5C50.0000714285714 762.5 0 812.5 0 881.25C0 950 56.2500714285714 1000 118.75 1000C187.5 1000 237.5000000000001 950 237.5000000000001 881.25C237.5000000000001 812.5 187.5 762.5 118.75 762.5zM1000 0H787.5V362.4999999999999C787.5 468.75 743.75 500 681.2492857142857 500C618.7492857142857 500 556.2492857142857 450 556.2492857142857 356.25V0H343.75V668.75H543.75V575C562.5 618.75 637.4992857142856 687.5 743.75 687.5C862.5 687.5 987.5 618.75 987.5 412.5V0H1000z" />
    <glyph glyph-name="medium"
      unicode="&#xEA13;"
      horiz-adv-x="1142.857142857143" d="M135.7142857142857 771.4564285714285C135.7142857142857 785.7421428571429 128.5714285714286 800.0278571428571 121.4285714285714 807.1707142857143L14.2857142857143 935.7422142857142V957.1707857142856H342.8571428571429L600 392.885L828.5714285714286 957.1707857142856H1142.857142857143V935.7422142857142L1050 850.0278571428571C1042.857142857143 842.885 1035.7142857142858 835.7421428571429 1042.857142857143 821.4564285714285V178.6C1042.857142857143 171.4571428571428 1042.857142857143 157.1714285714286 1050 150.0285714285715L1135.7142857142858 64.3142857142857V42.8857142857142H685.7142857142857V64.3142857142857L778.5714285714287 157.1714285714286C785.7142857142858 164.3142857142857 785.7142857142858 171.4571428571428 785.7142857142858 185.7428571428571V707.1707142857142L528.5714285714286 57.1714285714286H500L200 707.1707142857142V271.4571428571428C200 250.0285714285715 207.1428571428572 235.7428571428572 214.2857142857143 221.4571428571429L335.7142857142857 78.6V57.1714285714286H0V78.6L121.4285714285714 221.4571428571429C135.7142857142857 235.7428571428572 142.8571428571429 250.0285714285715 135.7142857142857 271.4571428571428V771.4564285714285z" />
    <glyph glyph-name="notifications"
      unicode="&#xEA14;"
      horiz-adv-x="1000" d="M500.0522975500363 93.75C545.8854225500363 93.75 583.3854225500363 131.25 583.3854225500363 177.08125H416.7185475500363C416.7185475500363 131.25 453.8022975500363 93.75 500.0522975500363 93.75zM750.0504225500363 343.75V552.083125C750.0504225500363 680 681.7191725500363 787.083125 562.5522975500363 815.416875V843.75C562.5522975500363 878.333125 534.6354225500363 906.25 500.0522975500363 906.25C465.4685475500363 906.25 437.5522975500363 878.333125 437.5522975500363 843.75V815.416875C317.9685475500363 787.083125 250.0522975500363 680.416875 250.0522975500363 552.083125V343.75L196.3022975500363 290C170.0522975500363 263.75 188.3854225500363 218.75 225.4685475500363 218.75H774.2191725500363C811.3004225500364 218.75 830.0504225500363 263.75 803.8004225500363 290L750.0504225500363 343.75z" />
    <glyph glyph-name="pause"
      unicode="&#xEA15;"
      horiz-adv-x="1000" d="M333.3333333333333 208.3333333333334C379.1666666666667 208.3333333333334 416.6666666666667 245.8333333333334 416.6666666666667 291.6666666666668V708.3333333333334C416.6666666666667 754.1666666666666 379.1666666666667 791.6666666666667 333.3333333333333 791.6666666666667C287.5 791.6666666666667 250 754.1666666666666 250 708.3333333333334V291.6666666666668C250 245.8333333333334 287.5 208.3333333333334 333.3333333333333 208.3333333333334zM583.3333333333333 708.3333333333334V291.6666666666668C583.3333333333333 245.8333333333334 620.8333333333333 208.3333333333334 666.6666666666666 208.3333333333334C712.5 208.3333333333334 750 245.8333333333334 750 291.6666666666668V708.3333333333334C750 754.1666666666666 712.5 791.6666666666667 666.6666666666666 791.6666666666667C620.8333333333333 791.6666666666667 583.3333333333333 754.1666666666666 583.3333333333333 708.3333333333334z" />
    <glyph glyph-name="pointing"
      unicode="&#xEA16;"
      horiz-adv-x="958.3333333333333" d="M240.5888130167186 303.8916666666667C225.0333963500519 323.8916666666667 205.5888130167186 364.4458333333335 171.7000630167186 415.0041666666667C152.2554796833852 442.7791666666667 104.4775630167186 495.5583333333333 90.0333963500519 522.7791666666667C79.6204796833852 539.3208333333333 76.5992296833852 559.4666666666667 81.7000630167186 578.3375000000001C90.4200630167186 614.2129166666667 124.4533963500519 638.0125 161.1442296833852 633.89125C189.5221463500519 628.1904166666667 215.6013130167186 614.2816666666668 236.1442296833852 593.89125C250.4875630167186 580.3833333333333 263.6813130167186 565.7 275.5888130167186 550.0041666666667C284.4775630167186 538.8916666666667 286.7000630167186 534.4458333333334 296.7000630167186 521.6708333333333C306.7000630167186 508.8916666666667 313.3663130167186 496.1125000000001 308.3663130167186 515.0041666666666C304.4775630167186 542.7791666666667 297.8108963500519 589.4466666666667 288.3667296833852 631.1133333333333C281.1442296833852 662.78 279.4775630167186 667.78 272.8108963500519 691.66875C266.1442296833852 715.5579166666666 262.2554796833852 735.5579166666666 255.0333963500519 762.78C248.4313130167186 789.52625 243.2388130167185 816.6004166666667 239.4775630167186 843.89125C232.4750630167186 878.7966666666666 237.5696463500519 915.0458333333333 253.9221463500519 946.6691666666666C273.3329796833852 964.92625 301.8071463500519 969.7449583333334 326.1442296833852 958.8912083333335C350.6217296833852 940.8170833333334 368.8721463500519 915.5770833333333 378.3663130167185 886.6691666666667C392.9258963500519 851.0916666666667 402.6421463500519 813.7208333333333 407.2538130167186 775.5579166666666C416.1454796833852 720.0025 433.3663130167186 638.89125 433.9204796833852 622.2245833333334C433.9204796833852 642.78 430.0329796833852 686.1133333333333 433.9204796833852 705.5579166666666C437.7746463500519 725.82875 451.8621463500519 742.6516666666666 471.1454796833852 750.0025C487.6913130167185 755.07875 505.1913130167185 756.22 522.2538130167186 753.3358333333333C539.4788130167185 749.7345833333334 554.737146350052 739.8275000000001 565.0329796833853 725.5579166666666C577.9038130167185 693.1470833333333 585.0454796833851 658.7466666666667 586.1454796833852 623.89125C587.6329796833852 654.4141666666667 592.8579796833851 684.6395833333333 601.6996463500518 713.89125C610.9829796833851 726.9716666666667 624.5413130167185 736.4029166666667 640.0329796833853 740.5579166666666C658.3996463500519 743.9158333333334 677.2204796833853 743.9158333333334 695.5871463500519 740.5579166666666C710.6496463500519 735.5229166666667 723.8246463500518 726.0291666666667 733.3663130167185 713.3358333333333C745.1329796833852 683.8720833333334 752.2538130167186 652.76125 754.4788130167185 621.1133333333333C754.4788130167185 613.3354166666668 758.3663130167185 642.78 770.5871463500519 662.2245833333334C776.9413130167186 681.0799999999999 792.8704796833852 695.115 812.374646350052 699.0425C831.8788130167186 702.97 851.999646350052 696.1929166666666 865.1496463500519 681.2645833333333C878.3038130167185 666.3362500000001 882.4954796833852 645.5245833333333 876.1454796833852 626.6691666666667C876.1454796833852 590.5579166666666 876.1454796833852 592.2245833333334 876.1454796833852 567.7791666666667C876.1454796833852 543.3375000000001 876.1454796833852 521.6708333333333 876.1454796833852 501.1125C874.1204796833852 468.6041666666666 869.6621463500519 436.2916666666668 862.812146350052 404.4458333333334C853.1413130167186 376.275 839.687146350052 349.5458333333334 822.8121463500518 325.0041666666667C795.8371463500519 295.0041666666667 773.5454796833851 261.1041666666668 756.6996463500518 224.4458333333335C752.5204796833852 206.2333333333334 750.6538130167185 187.5708333333333 751.1454796833852 168.8916666666668C751.0871463500519 151.6333333333333 753.3288130167184 134.4458333333335 757.812146350052 117.7791666666667C735.0954796833853 115.3791666666668 712.1913130167184 115.3791666666668 689.4788130167185 117.7791666666667C667.812146350052 121.1125000000001 641.1454796833852 164.4458333333333 633.9204796833851 177.7791666666667C630.3496463500519 184.9375000000001 623.0329796833851 189.4625000000001 615.0329796833851 189.4625000000001C607.0329796833853 189.4625000000001 599.7163130167185 184.9375000000001 596.1454796833852 177.7791666666667C583.9204796833851 156.6708333333335 556.6996463500518 118.3375000000001 537.8121463500518 116.1125000000001C500.5871463500519 111.6708333333334 423.9204796833852 116.1125000000001 363.3663130167186 116.1125000000001C363.3663130167186 116.1125000000001 373.3663130167186 171.6708333333335 350.5888130167185 191.6708333333335C327.8108963500519 211.6708333333335 304.4775630167186 235.0041666666667 287.2554796833852 250.5583333333334L240.5888130167186 303.8916666666667zM711.6996463500518 273.5666666666667V465.3291666666667C711.6996463500518 476.8083333333334 702.374646350052 486.1125000000001 690.8663130167185 486.1125000000001C679.362146350052 486.1125000000001 670.0329796833853 476.8083333333334 670.0329796833853 465.3291666666667V273.5666666666667C670.0329796833853 262.0875 679.362146350052 252.7791666666667 690.8663130167185 252.7791666666667C702.374646350052 252.7791666666667 711.6996463500518 262.0875 711.6996463500518 273.5666666666667zM601.6996463500518 273.6333333333334L600.5871463500519 465.5C600.5204796833852 476.95 591.1413130167184 486.1791666666667 579.6329796833852 486.1125000000001C568.1288130167186 486.0500000000001 558.8538130167185 476.7125000000001 558.9204796833853 465.2625L560.0329796833853 273.3958333333334C560.0996463500519 261.9458333333334 569.4788130167185 252.7166666666667 580.987146350052 252.7833333333334C592.4913130167185 252.8458333333334 601.7663130167186 262.1833333333334 601.6996463500518 273.6333333333334zM447.8121463500519 465.0583333333334L448.9246463500519 273.5916666666667C448.9913130167186 262.0333333333333 458.3704796833852 252.7125000000001 469.8788130167185 252.7833333333334C481.3829796833852 252.85 490.6579796833852 262.275 490.5913130167185 273.8375L489.4788130167186 465.3041666666667C489.4121463500519 476.8625 480.0288130167185 486.1833333333334 468.5246463500519 486.1125000000001C457.0163130167185 486.0458333333333 447.7454796833852 476.6208333333334 447.8121463500519 465.0583333333334z" />
    <glyph glyph-name="remove_red_eye"
      unicode="&#xEA17;"
      horiz-adv-x="1000" d="M499.99853125 812.5C291.66540625 812.5 113.74853125 682.916875 41.66521875 500C113.74853125 317.08125 291.66540625 187.5 499.99853125 187.5C708.33478125 187.5 886.24728125 317.08125 958.33478125 500C886.24728125 682.916875 708.33478125 812.5 499.99853125 812.5zM499.99853125 291.6687500000001C384.9985312500001 291.6687500000001 291.66540625 385 291.66540625 500C291.66540625 615 384.9985312500001 708.333125 499.99853125 708.333125C614.99853125 708.333125 708.33478125 615 708.33478125 500C708.33478125 385 614.99853125 291.6687500000001 499.99853125 291.6687500000001zM499.99853125 625C430.83165625 625 374.9985312500001 569.166875 374.9985312500001 500C374.9985312500001 430.833125 430.83165625 375 499.99853125 375C569.16540625 375 624.99728125 430.833125 624.99728125 500C624.99728125 569.166875 569.16540625 625 499.99853125 625z" />
    <glyph glyph-name="send"
      unicode="&#xEA18;"
      horiz-adv-x="1000" d="M152.9695833333333 150.0000000000001L880.0512500000001 461.6658333333334C913.80125 476.2491666666667 913.80125 523.7491666666667 880.0512500000001 538.3325L152.9695833333333 849.9991666666667C125.4695833333333 862.0825 95.0529166666667 841.6658333333334 95.0529166666667 812.0825L94.63625 619.9991666666667C94.63625 599.1658333333334 110.0529166666667 581.2491666666667 130.88625 578.7491666666667L719.6362499999999 499.9991666666667L130.88625 421.6658333333334C110.0529166666667 418.7491666666667 94.63625 400.8325 94.63625 379.9991666666667L95.0529166666667 187.9158333333334C95.0529166666667 158.3333333333334 125.4695833333333 137.9166666666666 152.9695833333333 150.0000000000001z" />
    <glyph glyph-name="settings"
      unicode="&#xEA19;"
      horiz-adv-x="1000" d="M812.4985679168902 499.9975C812.4985679168902 509.580625 812.0860679168902 518.7475 811.2485679168902 528.330625L888.7485679168902 587.080625C905.4173179168902 599.580625 909.9985679168902 622.9143750000001 899.5860679168902 641.2475L821.6673179168902 775.830625C811.2485679168902 794.1643750000001 788.7485679168902 801.6643750000001 769.5860679168902 793.330625L679.9985679168902 755.4143750000001C664.5860679168902 766.2475 648.3360679168902 775.830625 631.2485679168902 783.7475L619.1666929168902 879.9975C616.6666929168903 900.830625 598.7498179168902 916.664375 577.9166929168902 916.664375H422.4998179168902C401.2498179168903 916.664375 383.3329429168903 900.830625 380.8329429168903 879.9975L368.7498179168902 783.7475C351.6666929168902 775.830625 335.4166929168903 766.2475 319.9998179168903 755.4143750000001L230.4166929168902 793.330625C211.2498179168902 801.6643750000001 188.7498179168902 794.1643750000001 178.3329429168902 775.830625L100.4166929168902 640.830625C89.9998179168902 622.4975 94.5829429168902 599.580625 111.2498179168902 586.6643750000001L188.7498179168902 527.9143750000001C187.9166929168902 518.7475 187.4998179168902 509.580625 187.4998179168902 499.9975C187.4998179168902 490.4143749999999 187.9166929168902 481.2475000000001 188.7498179168902 471.6643750000001L111.2498179168902 412.914375C94.5829429168902 400.414375 89.9998179168902 377.080625 100.4166929168902 358.75L178.3329429168902 224.1625C188.7498179168902 205.8312500000001 211.2498179168902 198.33125 230.4166929168902 206.6625L319.9998179168903 244.58125C335.4166929168903 233.75 351.6666929168902 224.1625 368.7498179168902 216.25L380.8329429168903 120C383.3329429168903 99.1625 401.2498179168903 83.33125 422.0829429168903 83.33125H577.4998179168902C598.3329429168903 83.33125 616.2498179168903 99.1625 618.7498179168903 120L630.8360679168903 216.25C647.9173179168902 224.1625 664.1673179168902 233.75 679.5860679168902 244.58125L769.1673179168902 206.6625C788.3360679168902 198.33125 810.8360679168902 205.8312500000001 821.2485679168902 224.1625L899.1673179168902 358.75C909.5860679168902 377.080625 904.9985679168902 399.9975000000001 888.3360679168902 412.914375L810.8360679168902 471.6643750000001C812.0860679168902 481.2475000000001 812.4985679168902 490.4143749999999 812.4985679168902 499.9975zM501.6666929168903 354.1625C421.2498179168903 354.1625 355.8329429168902 419.5806250000001 355.8329429168902 499.9975C355.8329429168902 580.4143750000001 421.2498179168903 645.830625 501.6666929168903 645.830625C582.0829429168903 645.830625 647.4985679168902 580.4143750000001 647.4985679168902 499.9975C647.4985679168902 419.5806250000001 582.0829429168903 354.1625 501.6666929168903 354.1625z" />
    <glyph glyph-name="stream"
      unicode="&#xEA1A;"
      horiz-adv-x="1000" d="M833.3299999999999 416.664375C879.3549999999999 416.664375 916.6675 453.97375 916.6675 499.9975C916.6675 546.02125 879.3549999999999 583.330625 833.3299999999999 583.330625C787.31125 583.330625 749.99875 546.02125 749.99875 499.9975C749.99875 453.97375 787.31125 416.664375 833.3299999999999 416.664375zM166.66625 416.664375C212.69 416.664375 249.999375 453.97375 249.999375 499.9975C249.999375 546.02125 212.69 583.330625 166.66625 583.330625C120.6425 583.330625 83.3325 546.02125 83.3325 499.9975C83.3325 453.97375 120.6425 416.664375 166.66625 416.664375zM499.9993749999999 83.33125C546.0231249999999 83.33125 583.3325 120.6374999999999 583.3325 166.6625C583.3325 212.6875 546.0231249999999 250 499.9993749999999 250C453.975625 250 416.66625 212.6875 416.66625 166.6625C416.66625 120.6374999999999 453.975625 83.33125 499.9993749999999 83.33125zM328.749375 389.5806250000001L206.249375 267.5C189.999375 251.25 189.999375 225 206.249375 208.75C222.499375 192.5 248.749375 192.5 264.999375 208.75L387.499375 330.8312500000001C403.749375 346.6625 403.749375 373.33125 387.499375 389.5806250000001C371.249375 405.8306250000001 344.999375 405.8306250000001 328.749375 389.5806250000001zM267.0825 794.1643750000001C250.8325 810.414375 224.5825 810.414375 208.3325 794.1643750000001C192.0825 777.914375 192.0825 751.6643750000001 208.3325 735.4143750000001L330.41625 612.9143750000001C346.66625 596.6643750000001 372.91625 596.6643750000001 389.5825 612.9143750000001C405.41625 629.1643750000001 405.41625 655.4143750000001 389.16625 671.6643750000001L267.0825 794.1643750000001zM671.6675 389.5806250000001C655.4175 405.8306250000001 629.1675 405.8306250000001 612.499375 389.5806250000001C596.249375 373.33125 596.249375 347.08125 612.499375 330.8312500000001L734.99875 208.33125C751.24875 192.08125 777.49875 192.08125 793.74875 208.33125C809.99875 224.58125 809.99875 250.83125 793.74875 267.0812500000001L671.6675 389.5806250000001zM669.1674999999999 611.2475L793.74875 735.4143750000001C809.99875 752.080625 809.99875 778.330625 793.74875 794.580625C777.49875 810.830625 751.24875 810.830625 734.99875 794.580625L610.4162499999999 670.4143750000001C594.1662499999999 654.1643750000001 594.1662499999999 627.9143750000001 610.4162499999999 611.2475C626.6675 594.9975 652.9175 594.9975 669.1674999999999 611.2475zM499.9993749999999 749.9975C546.0231249999999 749.9975 583.3325 787.306875 583.3325 833.330625C583.3325 879.354375 546.0231249999999 916.664375 499.9993749999999 916.664375C453.975625 916.664375 416.66625 879.354375 416.66625 833.330625C416.66625 787.306875 453.975625 749.9975 499.9993749999999 749.9975z" />
    <glyph glyph-name="subtitles"
      unicode="&#xEA1B;"
      horiz-adv-x="1000" d="M833.3333333333333 833.3333333333334H166.6666666666667C120.8333333333334 833.3333333333334 83.3333333333334 795.8333333333334 83.3333333333334 750V250C83.3333333333334 204.1666666666666 120.8333333333334 166.6666666666668 166.6666666666667 166.6666666666668H833.3333333333333C879.1666666666666 166.6666666666668 916.6666666666666 204.1666666666666 916.6666666666666 250V750C916.6666666666666 795.8333333333334 879.1666666666666 833.3333333333334 833.3333333333333 833.3333333333334zM833.3333333333333 250H166.6666666666667V750H833.3333333333333V250zM250.0000000000001 583.3333333333334H333.3333333333334V500H250.0000000000001V583.3333333333334zM250.0000000000001 416.6666666666668H583.3333333333333V333.3333333333334H250.0000000000001V416.6666666666668zM666.6666666666666 416.6666666666668H750V333.3333333333334H666.6666666666666V416.6666666666668zM416.6666666666667 583.3333333333334H750V500H416.6666666666667V583.3333333333334z" />
    <glyph glyph-name="today"
      unicode="&#xEA1C;"
      horiz-adv-x="1000" d="M791.66875 833.323125H750V874.99C750 897.90625 731.25 916.65625 708.33125 916.65625C685.4187499999999 916.65625 666.66875 897.90625 666.66875 874.99V833.323125H333.333125V874.99C333.333125 897.90625 314.583125 916.65625 291.666875 916.65625C268.75 916.65625 250 897.90625 250 874.99V833.323125H208.333125C162.083125 833.323125 125.416875 795.823125 125.416875 749.99L125 166.65625C125 120.8249999999999 162.083125 83.3249999999999 208.333125 83.3249999999999H791.66875C837.5 83.3249999999999 875 120.8249999999999 875 166.65625V749.99C875 795.823125 837.5 833.323125 791.66875 833.323125zM750 166.65625H250C227.083125 166.65625 208.333125 185.40625 208.333125 208.3249999999999V624.99H791.66875V208.3249999999999C791.66875 185.40625 772.9187499999999 166.65625 750 166.65625zM333.333125 541.65625H458.333125C481.25 541.65625 500 522.90625 500 499.9900000000001V374.9875000000001C500 352.0750000000001 481.25 333.325 458.333125 333.325H333.333125C310.416875 333.325 291.666875 352.0750000000001 291.666875 374.9875000000001V499.9900000000001C291.666875 522.90625 310.416875 541.65625 333.333125 541.65625z" />
    <glyph glyph-name="twitter"
      unicode="&#xEA1D;"
      horiz-adv-x="1142.857142857143" d="M1142.857142857143 857.1428571428571C1100 835.7142857142858 1057.142857142857 828.5714285714286 1007.1428571428572 821.4285714285714C1057.142857142857 850 1092.857142857143 892.8571428571429 1107.142857142857 950C1064.2857142857144 921.4285714285714 1014.2857142857142 907.1428571428572 957.1428571428572 892.8571428571429C914.2857142857144 935.7142857142856 850 964.2857142857144 785.7142857142858 964.2857142857144C635.7142857142858 964.2857142857144 521.4285714285714 821.4285714285714 557.1428571428571 678.5714285714286C364.2857142857143 685.7142857142857 192.8571428571429 778.5714285714286 71.4285714285714 921.4285714285714C7.1428571428571 814.2857142857142 42.8571428571429 678.5714285714286 142.8571428571429 607.1428571428571C107.1428571428571 607.1428571428571 71.4285714285714 621.4285714285714 35.7142857142857 635.7142857142858C35.7142857142857 528.5714285714286 114.2857142857143 428.5714285714286 221.4285714285715 400C185.7142857142857 392.8571428571429 150 385.7142857142857 114.2857142857143 392.8571428571429C142.8571428571429 299.9999999999999 228.5714285714286 228.5714285714286 335.7142857142857 228.5714285714286C250 164.2857142857143 121.4285714285714 128.5714285714286 0 142.8571428571429C107.1428571428571 78.5714285714286 228.5714285714286 35.7142857142857 357.1428571428572 35.7142857142857C792.8571428571429 35.7142857142857 1035.7142857142858 400 1021.4285714285716 735.7142857142858C1071.4285714285716 764.2857142857142 1114.2857142857142 807.1428571428571 1142.857142857143 857.1428571428571z" />
    <glyph glyph-name="verified"
      unicode="&#xEA1E;"
      horiz-adv-x="1000" d="M958.332625 500L856.670125 616.25L870.832625 770L720.4201250000001 804.166875L641.6701250000001 937.5L500.0007500000001 876.666875L358.3338750000001 937.5L279.5838750000001 804.583125L129.1676250000001 770.833125L143.3338750000001 616.666875L41.6673750000001 500L143.3338750000001 383.75L129.1676250000001 229.58125L279.5838750000001 195.4187499999999L358.3338750000001 62.5L500.0007500000001 123.75L641.6701250000001 62.9187500000001L720.4201250000001 195.8312500000001L870.832625 230L856.670125 383.75L958.332625 500zM390.8338750000001 332.9187500000001L291.6676250000001 432.916875C275.4176250000001 449.166875 275.4176250000001 475.416875 291.6676250000001 491.6668749999999L294.5838750000001 494.583125C310.8338750000001 510.833125 337.5007500000001 510.833125 353.7507500000001 494.583125L420.8338750000001 427.083125L635.4201250000001 642.083125C651.6701250000001 658.333125 678.3326250000001 658.333125 694.5826250000001 642.083125L697.501375 639.166875C713.751375 622.916875 713.751375 596.666875 697.501375 580.416875L450.8338750000001 332.9187500000001C433.7507500000001 316.6687500000001 407.5007500000001 316.6687500000001 390.8338750000001 332.9187500000001z" />
    <glyph glyph-name="volume_off"
      unicode="&#xEA1F;"
      horiz-adv-x="1000" d="M151.25 848.5404166666667C135 832.2904166666667 135 806.0404166666667 151.25 789.7904166666667L303.75 637.2904166666667L291.6666666666667 624.7904166666667H166.6666666666667C143.75 624.7904166666667 125 606.0404166666667 125 583.125V416.4583333333334C125 393.5416666666668 143.75 374.7916666666667 166.6666666666667 374.7916666666667H291.6666666666667L428.75 237.7083333333333C454.9999999999999 211.4583333333334 500 230.2083333333334 500 267.2916666666667V441.0416666666668L674.1666666666666 266.8750000000001C653.7499999999999 251.4583333333334 631.6666666666666 238.5416666666668 607.5 228.9583333333334C592.5 222.7083333333334 583.3333333333333 206.875 583.3333333333333 190.625C583.3333333333333 160.6250000000001 613.75 141.4583333333334 641.25 152.7083333333334C674.5833333333334 166.4583333333334 705.8333333333334 184.7916666666666 733.7499999999999 207.2916666666668L789.5833333333333 151.4583333333335C805.8333333333333 135.2083333333334 832.0833333333333 135.2083333333334 848.3333333333333 151.4583333333335C864.5833333333333 167.7083333333334 864.5833333333333 193.9583333333334 848.3333333333333 210.2083333333335L210.4166666666667 848.5404166666667C194.1666666666667 864.7904166666667 167.9166666666667 864.7904166666667 151.25 848.5404166666667zM791.6666666666666 499.7916666666667C791.6666666666666 465.6250000000001 785.4166666666666 432.7083333333334 774.5833333333333 402.2916666666667L838.3333333333334 338.5416666666668C861.6666666666666 387.2916666666668 875 441.875 875 499.7916666666667C875 659.37375 775 796.0404166666667 634.1666666666666 849.7904166666667C609.5833333333334 859.37375 583.3333333333333 840.2070833333333 583.3333333333333 813.9570833333333V806.0404166666667C583.3333333333333 790.2070833333333 593.75 776.4570833333333 608.7499999999999 770.62375C715.8333333333333 727.2904166666667 791.6666666666666 622.2904166666667 791.6666666666666 499.7916666666667zM428.75 761.87375L421.6666666666667 754.7904166666667L500 676.4570833333333V732.7070833333333C500 769.7904166666667 454.9999999999999 788.12375 428.75 761.87375zM687.5 499.7916666666667C687.5 573.5416666666667 645 636.87375 583.3333333333333 667.7070833333333V593.12375L686.6666666666666 489.7916666666667C687.0833333333333 493.1250000000001 687.5 496.4583333333333 687.5 499.7916666666667z" />
    <glyph glyph-name="volume_up"
      unicode="&#xEA20;"
      horiz-adv-x="1000" d="M125 583.2583333333334V416.5916666666667C125 393.6750000000001 143.75 374.9250000000001 166.6666666666667 374.9250000000001H291.6666666666667L428.75 237.8416666666668C454.9999999999999 211.5916666666667 500 230.3416666666666 500 267.425V732.8420833333333C500 769.9254166666667 454.9999999999999 788.6754166666667 428.75 762.4254166666667L291.6666666666667 624.9254166666667H166.6666666666667C143.75 624.9254166666667 125 606.1754166666667 125 583.2583333333334zM687.5 499.9250000000001C687.5 573.675 645 637.00875 583.3333333333333 667.8420833333333V332.4250000000001C645 362.8416666666667 687.5 426.175 687.5 499.9250000000001zM583.3333333333333 814.50875V806.1754166666667C583.3333333333333 790.3420833333333 593.75 776.5920833333333 608.3333333333333 770.75875C715.8333333333333 727.8420833333333 791.6666666666666 622.4254166666667 791.6666666666666 499.9250000000001C791.6666666666666 377.425 715.8333333333333 272.0083333333334 608.3333333333333 229.0916666666667C593.3333333333333 223.2583333333333 583.3333333333333 209.5083333333333 583.3333333333333 193.6750000000001V185.3416666666667C583.3333333333333 159.0916666666667 609.5833333333334 140.7583333333333 633.75 149.925C775 203.6750000000001 875 339.9250000000001 875 499.9250000000001C875 659.9254166666667 775 796.1754166666667 633.75 849.9254166666667C609.5833333333334 859.50875 583.3333333333333 840.75875 583.3333333333333 814.50875z" />
    <glyph glyph-name="whatshot"
      unicode="&#xEA21;"
      horiz-adv-x="1000" d="M712.0846875 801.014375C682.9159375 843.93125 649.5846875 883.93125 612.0815625 919.764375C597.4984375 933.93125 572.9153124999999 920.5975 577.0815625 900.5975C584.9984375 861.43125 593.3315625 809.764375 593.3315625 763.514375C593.3315625 677.6812500000001 537.0815624999999 608.0975000000001 451.2484375 608.0975000000001C387.0815625 608.0975000000001 334.5815625 646.8475000000001 311.6653125000001 702.264375C307.4984375 710.5975 305.8315625 715.5975000000001 303.3315625 724.764375C298.7484375 742.264375 275.8315625 747.68125 265.8315625 732.264375C258.3315625 721.014375 251.2484375 709.764375 244.5815625 697.68125C194.9984375 612.6812500000001 166.6653125 513.514375 166.6653125 407.680625C166.6653125 223.5125000000001 315.8315625 74.35 499.9984375 74.35C684.1659375 74.35 833.3346875 223.5125000000001 833.3346875 407.680625C833.3346875 553.0975000000001 788.3346875 688.0975 712.0846875 801.014375zM487.9153125 199.35C413.7484375 199.35 353.7484375 257.68125 353.7484375 330.18125C353.7484375 397.68125 397.4984375 445.18125 470.8315625 460.18125C532.0815625 472.6812500000001 594.9984375 498.93125 638.7471875 540.18125C650.4159375 551.014375 669.5846875 546.014375 672.9159375 530.5975000000001C682.4971875 488.0975 687.4971875 443.93125 687.4971875 399.3475C687.9159375 288.93125 598.3315625 199.35 487.9153125 199.35z" />
  </font>
</defs>
</svg>
