<svg width="22" height="22" viewBox="0 0 22 22" fill="none" xmlns="http://www.w3.org/2000/svg">
<path d="M16.3333 11.0047C16.3333 11.4936 16.7333 11.8936 17.2222 11.8936H19C19.4889 11.8936 19.8889 11.4936 19.8889 11.0047C19.8889 10.5158 19.4889 10.1158 19 10.1158H17.2222C16.7333 10.1158 16.3333 10.5158 16.3333 11.0047Z" fill="#323334"/>
<path d="M15.08 15.2892C14.7867 15.6803 14.8667 16.2225 15.2578 16.5069C15.7289 16.8536 16.2267 17.2269 16.6978 17.5825C17.0889 17.8758 17.64 17.7958 17.9244 17.4047C17.9244 17.3958 17.9333 17.3958 17.9333 17.3869C18.2267 16.9958 18.1467 16.4447 17.7556 16.1603C17.2844 15.8047 16.7867 15.4314 16.3244 15.0847C15.9333 14.7914 15.3822 14.8803 15.0889 15.2714C15.0889 15.2803 15.08 15.2892 15.08 15.2892Z" fill="#323334"/>
<path d="M17.9422 4.61359C17.9422 4.60471 17.9333 4.60471 17.9333 4.59582C17.64 4.20471 17.0889 4.12471 16.7067 4.41804C16.2356 4.77359 15.7289 5.14693 15.2667 5.50248C14.8756 5.79582 14.8044 6.34693 15.0978 6.72915C15.0978 6.73804 15.1067 6.73804 15.1067 6.74693C15.4 7.13804 15.9422 7.21804 16.3333 6.92471C16.8044 6.57804 17.3022 6.19582 17.7733 5.84026C18.1556 5.55582 18.2267 5.00471 17.9422 4.61359Z" fill="#323334"/>
<path d="M7.44445 8.33804H3.88889C2.91111 8.33804 2.11111 9.13804 2.11111 10.1158V11.8936C2.11111 12.8714 2.91111 13.6714 3.88889 13.6714H4.77778V16.338C4.77778 16.8269 5.17778 17.2269 5.66667 17.2269C6.15556 17.2269 6.55556 16.8269 6.55556 16.338V13.6714H7.44445L11.8889 16.338V5.67137L7.44445 8.33804Z" fill="#323334"/>
<path d="M14.1111 11.0047C14.1111 9.82248 13.5956 8.75582 12.7778 8.02693V13.9736C13.5956 13.2536 14.1111 12.1869 14.1111 11.0047Z" fill="#323334"/>
</svg>
