<svg width="16" height="16" viewBox="0 0 16 16" fill="none" xmlns="http://www.w3.org/2000/svg">
<path d="M11.3333 4.6665H9.33334C8.96667 4.6665 8.66667 4.9665 8.66667 5.33317C8.66667 5.69984 8.96667 5.99984 9.33334 5.99984H11.3333C12.4333 5.99984 13.3333 6.89984 13.3333 7.99984C13.3333 9.09984 12.4333 9.99984 11.3333 9.99984H9.33334C8.96667 9.99984 8.66667 10.2998 8.66667 10.6665C8.66667 11.0332 8.96667 11.3332 9.33334 11.3332H11.3333C13.1733 11.3332 14.6667 9.83984 14.6667 7.99984C14.6667 6.15984 13.1733 4.6665 11.3333 4.6665ZM5.33334 7.99984C5.33334 8.3665 5.63334 8.6665 6 8.6665H10C10.3667 8.6665 10.6667 8.3665 10.6667 7.99984C10.6667 7.63317 10.3667 7.33317 10 7.33317H6C5.63334 7.33317 5.33334 7.63317 5.33334 7.99984ZM6.66667 9.99984H4.66667C3.56667 9.99984 2.66667 9.09984 2.66667 7.99984C2.66667 6.89984 3.56667 5.99984 4.66667 5.99984H6.66667C7.03334 5.99984 7.33334 5.69984 7.33334 5.33317C7.33334 4.9665 7.03334 4.6665 6.66667 4.6665H4.66667C2.82667 4.6665 1.33334 6.15984 1.33334 7.99984C1.33334 9.83984 2.82667 11.3332 4.66667 11.3332H6.66667C7.03334 11.3332 7.33334 11.0332 7.33334 10.6665C7.33334 10.2998 7.03334 9.99984 6.66667 9.99984Z" fill="black"/>
</svg>
