<svg width="16" height="16" viewBox="0 0 16 16" fill="none" xmlns="http://www.w3.org/2000/svg">
<path d="M15.3333 8L13.7067 6.14L13.9333 3.68L11.5267 3.13333L10.2667 1L7.99999 1.97333L5.73332 1L4.47332 3.12667L2.06666 3.66667L2.29332 6.13333L0.666656 8L2.29332 9.86L2.06666 12.3267L4.47332 12.8733L5.73332 15L7.99999 14.02L10.2667 14.9933L11.5267 12.8667L13.9333 12.32L13.7067 9.86L15.3333 8ZM6.25332 10.6733L4.66666 9.07333C4.40666 8.81333 4.40666 8.39333 4.66666 8.13333L4.71332 8.08667C4.97332 7.82667 5.39999 7.82667 5.65999 8.08667L6.73332 9.16667L10.1667 5.72667C10.4267 5.46667 10.8533 5.46667 11.1133 5.72667L11.16 5.77333C11.42 6.03333 11.42 6.45333 11.16 6.71333L7.21332 10.6733C6.93999 10.9333 6.51999 10.9333 6.25332 10.6733Z" fill="white"/>
</svg>
